<mxfile host="65bd71144e">
    <diagram id="pPEVgfL-dkFLMAk7b_JX" name="Page-1">
        <mxGraphModel dx="1452" dy="1133" grid="1" gridSize="10" guides="1" tooltips="1" connect="1" arrows="1" fold="1" page="1" pageScale="1" pageWidth="1169" pageHeight="827" math="0" shadow="0">
            <root>
                <mxCell id="0"/>
                <mxCell id="1" parent="0"/>
                <mxCell id="25" value="edu.monash.fit2099.engine" style="shape=umlFrame;whiteSpace=wrap;html=1;width=170;height=30;" parent="1" vertex="1">
                    <mxGeometry x="190" y="30" width="950" height="120" as="geometry"/>
                </mxCell>
                <mxCell id="26" value="game" style="shape=umlFrame;whiteSpace=wrap;html=1;" parent="1" vertex="1">
                    <mxGeometry x="40" y="160" width="1100" height="540" as="geometry"/>
                </mxCell>
                <mxCell id="3" value="Floor" style="html=1;" parent="1" vertex="1">
                    <mxGeometry x="210" y="180" width="110" height="50" as="geometry"/>
                </mxCell>
                <mxCell id="4" value="SuicideBehavior" style="html=1;" parent="1" vertex="1">
                    <mxGeometry x="610" y="350" width="110" height="50" as="geometry"/>
                </mxCell>
                <mxCell id="5" value="DefeatAction" style="html=1;" parent="1" vertex="1">
                    <mxGeometry x="880" y="350" width="110" height="50" as="geometry"/>
                </mxCell>
                <mxCell id="6" value="UnconsciousBehavior" style="html=1;" parent="1" vertex="1">
                    <mxGeometry x="600" y="420" width="120" height="50" as="geometry"/>
                </mxCell>
                <mxCell id="7" value="DormantBehavior" style="html=1;" parent="1" vertex="1">
                    <mxGeometry x="610" y="280" width="110" height="50" as="geometry"/>
                </mxCell>
                <mxCell id="8" value="AttackBehavior" style="html=1;" parent="1" vertex="1">
                    <mxGeometry x="610" y="630" width="110" height="50" as="geometry"/>
                </mxCell>
                <mxCell id="10" value="DormantKoopa" style="html=1;" parent="1" vertex="1">
                    <mxGeometry x="880" y="250" width="110" height="50" as="geometry"/>
                </mxCell>
                <mxCell id="11" value="Koopa" style="html=1;" parent="1" vertex="1">
                    <mxGeometry x="250" y="280" width="110" height="50" as="geometry"/>
                </mxCell>
                <mxCell id="12" value="Goomba" style="html=1;" parent="1" vertex="1">
                    <mxGeometry x="250" y="350" width="110" height="50" as="geometry"/>
                </mxCell>
                <mxCell id="13" value="Wrench" style="html=1;" parent="1" vertex="1">
                    <mxGeometry x="1010" y="180" width="110" height="50" as="geometry"/>
                </mxCell>
                <mxCell id="14" value="Mature" style="html=1;" parent="1" vertex="1">
                    <mxGeometry x="60" y="280" width="110" height="50" as="geometry"/>
                </mxCell>
                <mxCell id="15" value="Sprout" style="html=1;" parent="1" vertex="1">
                    <mxGeometry x="60" y="350" width="110" height="50" as="geometry"/>
                </mxCell>
                <mxCell id="16" value="«abstract»&lt;br&gt;Actor" style="html=1;" parent="1" vertex="1">
                    <mxGeometry x="470" y="80" width="110" height="50" as="geometry"/>
                </mxCell>
                <mxCell id="17" value="«abstract»&lt;br&gt;Enemy" style="html=1;" parent="1" vertex="1">
                    <mxGeometry x="350" y="490" width="110" height="50" as="geometry"/>
                </mxCell>
                <mxCell id="20" value="«enum»&lt;br&gt;Status" style="html=1;" parent="1" vertex="1">
                    <mxGeometry x="880" y="80" width="110" height="50" as="geometry"/>
                </mxCell>
                <mxCell id="21" value="«abstract»&lt;br&gt;Ground&lt;span style=&quot;color: rgba(0 , 0 , 0 , 0) ; font-family: monospace ; font-size: 0px&quot;&gt;%3CmxGraphModel%3E%3Croot%3E%3CmxCell%20id%3D%220%22%2F%3E%3CmxCell%20id%3D%221%22%20parent%3D%220%22%2F%3E%3CmxCell%20id%3D%222%22%20value%3D%22Extends%22%20style%3D%22endArrow%3Dblock%3BendSize%3D12%3Bhtml%3D1%3BendFill%3D0%3BentryX%3D0.5%3BentryY%3D1%3BentryDx%3D0%3BentryDy%3D0%3BexitX%3D1%3BexitY%3D0.5%3BexitDx%3D0%3BexitDy%3D0%3Brounded%3D0%3B%22%20edge%3D%221%22%20parent%3D%221%22%3E%3CmxGeometry%20width%3D%22160%22%20relative%3D%221%22%20as%3D%22geometry%22%3E%3CmxPoint%20x%3D%22820%22%20y%3D%22455%22%20as%3D%22sourcePoint%22%2F%3E%3CmxPoint%20x%3D%22875%22%20y%3D%22345%22%20as%3D%22targetPoint%22%2F%3E%3CArray%20as%3D%22points%22%3E%3CmxPoint%20x%3D%22875%22%20y%3D%22455%22%2F%3E%3C%2FArray%3E%3C%2FmxGeometry%3E%3C%2FmxCell%3E%3C%2Froot%3E%3C%2FmxGraphModel%3E&lt;/span&gt;" style="html=1;" parent="1" vertex="1">
                    <mxGeometry x="210" y="80" width="110" height="50" as="geometry"/>
                </mxCell>
                <mxCell id="22" value="Extends" style="endArrow=block;endSize=12;html=1;endFill=0;entryX=0.5;entryY=1;entryDx=0;entryDy=0;exitX=0.5;exitY=0;exitDx=0;exitDy=0;rounded=0;" parent="1" source="3" target="21" edge="1">
                    <mxGeometry x="-0.6" width="160" relative="1" as="geometry">
                        <mxPoint x="1830" y="645" as="sourcePoint"/>
                        <mxPoint x="1885" y="535" as="targetPoint"/>
                        <Array as="points"/>
                        <mxPoint as="offset"/>
                    </mxGeometry>
                </mxCell>
                <mxCell id="23" value="" style="endArrow=block;endSize=12;html=1;endFill=0;dashed=1;entryX=0.25;entryY=1;entryDx=0;entryDy=0;exitX=1;exitY=0.25;exitDx=0;exitDy=0;rounded=0;" parent="1" source="6" target="33" edge="1">
                    <mxGeometry width="160" relative="1" as="geometry">
                        <mxPoint x="1010" y="199" as="sourcePoint"/>
                        <mxPoint x="960" y="169" as="targetPoint"/>
                        <Array as="points">
                            <mxPoint x="778" y="433"/>
                        </Array>
                    </mxGeometry>
                </mxCell>
                <mxCell id="24" value="«abstract»&lt;br&gt;Action" style="html=1;" parent="1" vertex="1">
                    <mxGeometry x="600" y="80" width="110" height="50" as="geometry"/>
                </mxCell>
                <mxCell id="27" value="«abstract»&lt;br&gt;Item" style="html=1;" parent="1" vertex="1">
                    <mxGeometry x="1010" y="80" width="110" height="50" as="geometry"/>
                </mxCell>
                <mxCell id="30" value="Extends" style="endArrow=block;endSize=12;html=1;endFill=0;rounded=0;exitX=0;exitY=0.25;exitDx=0;exitDy=0;entryX=1;entryY=0.5;entryDx=0;entryDy=0;" parent="1" source="5" target="24" edge="1">
                    <mxGeometry x="0.4481" width="160" relative="1" as="geometry">
                        <mxPoint x="790" y="280" as="sourcePoint"/>
                        <mxPoint x="710" y="110" as="targetPoint"/>
                        <Array as="points">
                            <mxPoint x="740" y="363"/>
                            <mxPoint x="740" y="105"/>
                        </Array>
                        <mxPoint as="offset"/>
                    </mxGeometry>
                </mxCell>
                <mxCell id="33" value="«interface»&lt;br&gt;Behavior" style="html=1;" parent="1" vertex="1">
                    <mxGeometry x="750" y="80" width="110" height="50" as="geometry"/>
                </mxCell>
                <mxCell id="34" value="&lt;span style=&quot;font-size: 12px&quot;&gt;«refers»&lt;/span&gt;" style="endArrow=open;endSize=12;html=1;endFill=0;dashed=1;exitX=0.5;exitY=1;exitDx=0;exitDy=0;entryX=0.5;entryY=0;entryDx=0;entryDy=0;" parent="1" source="10" target="5" edge="1">
                    <mxGeometry width="160" relative="1" as="geometry">
                        <mxPoint x="482.5" y="49" as="sourcePoint"/>
                        <mxPoint x="727.5" y="-281" as="targetPoint"/>
                    </mxGeometry>
                </mxCell>
                <mxCell id="36" value="&lt;span style=&quot;font-size: 12px&quot;&gt;«implements»&lt;/span&gt;" style="endArrow=block;endSize=12;html=1;endFill=0;dashed=1;entryX=0.25;entryY=1;entryDx=0;entryDy=0;exitX=1;exitY=0.25;exitDx=0;exitDy=0;rounded=0;" parent="1" source="7" target="33" edge="1">
                    <mxGeometry width="160" relative="1" as="geometry">
                        <mxPoint x="340" y="349" as="sourcePoint"/>
                        <mxPoint x="457.5" y="273" as="targetPoint"/>
                        <Array as="points">
                            <mxPoint x="778" y="293"/>
                        </Array>
                    </mxGeometry>
                </mxCell>
                <mxCell id="37" value="" style="endArrow=block;endSize=12;html=1;endFill=0;dashed=1;exitX=1;exitY=0.75;exitDx=0;exitDy=0;entryX=0.25;entryY=1;entryDx=0;entryDy=0;rounded=0;" parent="1" source="4" target="33" edge="1">
                    <mxGeometry width="160" relative="1" as="geometry">
                        <mxPoint x="350" y="359" as="sourcePoint"/>
                        <mxPoint x="1180" y="310" as="targetPoint"/>
                        <Array as="points">
                            <mxPoint x="778" y="388"/>
                        </Array>
                    </mxGeometry>
                </mxCell>
                <mxCell id="38" value="Extends" style="endArrow=block;endSize=12;html=1;endFill=0;entryX=0.25;entryY=1;entryDx=0;entryDy=0;exitX=0.75;exitY=0;exitDx=0;exitDy=0;rounded=0;" parent="1" source="17" target="16" edge="1">
                    <mxGeometry width="160" relative="1" as="geometry">
                        <mxPoint x="625" y="459" as="sourcePoint"/>
                        <mxPoint x="530" y="404" as="targetPoint"/>
                        <Array as="points">
                            <mxPoint x="433" y="220"/>
                            <mxPoint x="498" y="220"/>
                        </Array>
                    </mxGeometry>
                </mxCell>
                <mxCell id="40" value="Extends" style="endArrow=block;endSize=12;html=1;endFill=0;entryX=0.25;entryY=0;entryDx=0;entryDy=0;exitX=1;exitY=0.75;exitDx=0;exitDy=0;rounded=0;" parent="1" source="12" target="17" edge="1">
                    <mxGeometry width="160" relative="1" as="geometry">
                        <mxPoint x="645" y="479" as="sourcePoint"/>
                        <mxPoint x="550" y="424" as="targetPoint"/>
                        <Array as="points">
                            <mxPoint x="378" y="388"/>
                        </Array>
                    </mxGeometry>
                </mxCell>
                <mxCell id="41" value="Extends" style="endArrow=block;endSize=12;html=1;endFill=0;entryX=0.75;entryY=1;entryDx=0;entryDy=0;rounded=0;exitX=0;exitY=0.25;exitDx=0;exitDy=0;" parent="1" source="10" target="16" edge="1">
                    <mxGeometry width="160" relative="1" as="geometry">
                        <mxPoint x="830" y="409" as="sourcePoint"/>
                        <mxPoint x="560" y="434" as="targetPoint"/>
                        <Array as="points">
                            <mxPoint x="680" y="263"/>
                            <mxPoint x="553" y="263"/>
                        </Array>
                    </mxGeometry>
                </mxCell>
                <mxCell id="42" value="&lt;span style=&quot;font-size: 12px&quot;&gt;«refers»&lt;/span&gt;" style="endArrow=open;endSize=12;html=1;endFill=0;dashed=1;entryX=0;entryY=0.5;entryDx=0;entryDy=0;exitX=1;exitY=0.5;exitDx=0;exitDy=0;" parent="1" source="12" target="4" edge="1">
                    <mxGeometry width="160" relative="1" as="geometry">
                        <mxPoint x="665" y="244" as="sourcePoint"/>
                        <mxPoint x="915" y="299" as="targetPoint"/>
                    </mxGeometry>
                </mxCell>
                <mxCell id="43" value="&lt;span style=&quot;font-size: 12px&quot;&gt;«refers»&lt;/span&gt;" style="endArrow=open;endSize=12;html=1;endFill=0;dashed=1;exitX=1;exitY=0.5;exitDx=0;exitDy=0;entryX=0;entryY=0.5;entryDx=0;entryDy=0;" parent="1" source="11" target="7" edge="1">
                    <mxGeometry width="160" relative="1" as="geometry">
                        <mxPoint x="720" y="214" as="sourcePoint"/>
                        <mxPoint x="630" y="234" as="targetPoint"/>
                    </mxGeometry>
                </mxCell>
                <mxCell id="44" value="&lt;span style=&quot;font-size: 12px&quot;&gt;«refers»&lt;/span&gt;" style="endArrow=open;endSize=12;html=1;endFill=0;dashed=1;exitX=1;exitY=0.5;exitDx=0;exitDy=0;entryX=0;entryY=0.5;entryDx=0;entryDy=0;" parent="1" source="15" target="12" edge="1">
                    <mxGeometry width="160" relative="1" as="geometry">
                        <mxPoint x="650" y="144" as="sourcePoint"/>
                        <mxPoint x="460" y="234" as="targetPoint"/>
                    </mxGeometry>
                </mxCell>
                <mxCell id="45" value="&lt;span style=&quot;font-size: 12px&quot;&gt;«refers»&lt;/span&gt;" style="endArrow=open;endSize=12;html=1;endFill=0;dashed=1;exitX=1;exitY=0.5;exitDx=0;exitDy=0;entryX=0;entryY=0.5;entryDx=0;entryDy=0;" parent="1" source="14" target="11" edge="1">
                    <mxGeometry width="160" relative="1" as="geometry">
                        <mxPoint x="575" y="119" as="sourcePoint"/>
                        <mxPoint x="577.5" y="173" as="targetPoint"/>
                    </mxGeometry>
                </mxCell>
                <mxCell id="46" value="SuperMushroom" style="html=1;" parent="1" vertex="1">
                    <mxGeometry x="1010" y="300" width="110" height="50" as="geometry"/>
                </mxCell>
                <mxCell id="47" value="WanderBehavior" style="html=1;" parent="1" vertex="1">
                    <mxGeometry x="610" y="560" width="110" height="50" as="geometry"/>
                </mxCell>
                <mxCell id="50" value="&lt;span style=&quot;font-size: 12px&quot;&gt;«refers»&lt;/span&gt;" style="endArrow=open;endSize=12;html=1;endFill=0;dashed=1;entryX=0;entryY=0.5;entryDx=0;entryDy=0;exitX=1;exitY=0.5;exitDx=0;exitDy=0;" parent="1" source="17" target="49" edge="1">
                    <mxGeometry width="160" relative="1" as="geometry">
                        <mxPoint x="720" y="419" as="sourcePoint"/>
                        <mxPoint x="620" y="304" as="targetPoint"/>
                    </mxGeometry>
                </mxCell>
                <mxCell id="51" value="" style="endArrow=open;endSize=12;html=1;endFill=0;dashed=1;exitX=1;exitY=0.5;exitDx=0;exitDy=0;entryX=0;entryY=0.5;entryDx=0;entryDy=0;rounded=0;" parent="1" source="17" target="47" edge="1">
                    <mxGeometry width="160" relative="1" as="geometry">
                        <mxPoint x="770" y="474" as="sourcePoint"/>
                        <mxPoint x="680" y="484" as="targetPoint"/>
                        <Array as="points">
                            <mxPoint x="510" y="515"/>
                            <mxPoint x="510" y="585"/>
                        </Array>
                    </mxGeometry>
                </mxCell>
                <mxCell id="52" value="" style="endArrow=open;endSize=12;html=1;endFill=0;dashed=1;exitX=1;exitY=0.5;exitDx=0;exitDy=0;entryX=0;entryY=0.5;entryDx=0;entryDy=0;rounded=0;" parent="1" source="17" target="8" edge="1">
                    <mxGeometry x="0.1923" y="4" width="160" relative="1" as="geometry">
                        <mxPoint x="780" y="484" as="sourcePoint"/>
                        <mxPoint x="690" y="494" as="targetPoint"/>
                        <Array as="points">
                            <mxPoint x="510" y="515"/>
                            <mxPoint x="510" y="655"/>
                        </Array>
                        <mxPoint as="offset"/>
                    </mxGeometry>
                </mxCell>
                <mxCell id="53" value="&lt;span style=&quot;font-size: 12px&quot;&gt;«refers»&lt;/span&gt;" style="endArrow=open;endSize=12;html=1;endFill=0;dashed=1;entryX=0.5;entryY=1;entryDx=0;entryDy=0;startArrow=none;rounded=0;exitX=0;exitY=0.25;exitDx=0;exitDy=0;" parent="1" source="7" target="16" edge="1">
                    <mxGeometry width="160" relative="1" as="geometry">
                        <mxPoint x="620" y="240" as="sourcePoint"/>
                        <mxPoint x="890" y="609" as="targetPoint"/>
                        <Array as="points">
                            <mxPoint x="525" y="293"/>
                        </Array>
                    </mxGeometry>
                </mxCell>
                <mxCell id="55" value="" style="endArrow=block;endSize=12;html=1;endFill=0;entryX=0;entryY=0.5;entryDx=0;entryDy=0;exitX=1;exitY=0.5;exitDx=0;exitDy=0;rounded=0;" parent="1" source="6" target="5" edge="1">
                    <mxGeometry width="160" relative="1" as="geometry">
                        <mxPoint x="752.5" y="429" as="sourcePoint"/>
                        <mxPoint x="672.5" y="309" as="targetPoint"/>
                        <Array as="points">
                            <mxPoint x="760" y="445"/>
                            <mxPoint x="760" y="375"/>
                        </Array>
                    </mxGeometry>
                </mxCell>
                <mxCell id="56" value="Extends" style="endArrow=block;endSize=12;html=1;endFill=0;entryX=0;entryY=0.5;entryDx=0;entryDy=0;exitX=1;exitY=0.5;exitDx=0;exitDy=0;rounded=0;" parent="1" source="4" target="5" edge="1">
                    <mxGeometry width="160" relative="1" as="geometry">
                        <mxPoint x="850" y="356.5" as="sourcePoint"/>
                        <mxPoint x="880" y="346.5" as="targetPoint"/>
                        <Array as="points"/>
                    </mxGeometry>
                </mxCell>
                <mxCell id="57" value="Extends" style="endArrow=block;endSize=12;html=1;endFill=0;exitX=0.5;exitY=0;exitDx=0;exitDy=0;rounded=0;" parent="1" source="13" target="27" edge="1">
                    <mxGeometry x="-0.6" width="160" relative="1" as="geometry">
                        <mxPoint x="780" y="71.5" as="sourcePoint"/>
                        <mxPoint x="840" y="71.5" as="targetPoint"/>
                        <Array as="points"/>
                        <mxPoint as="offset"/>
                    </mxGeometry>
                </mxCell>
                <mxCell id="58" value="&lt;span style=&quot;font-size: 12px&quot;&gt;«refers»&lt;/span&gt;" style="endArrow=open;endSize=12;html=1;endFill=0;dashed=1;exitX=1;exitY=0.5;exitDx=0;exitDy=0;entryX=0.5;entryY=0;entryDx=0;entryDy=0;rounded=0;" parent="1" source="10" target="46" edge="1">
                    <mxGeometry x="-0.2" width="160" relative="1" as="geometry">
                        <mxPoint x="897.5" y="359" as="sourcePoint"/>
                        <mxPoint x="887.5" y="439" as="targetPoint"/>
                        <Array as="points">
                            <mxPoint x="1065" y="275"/>
                        </Array>
                        <mxPoint as="offset"/>
                    </mxGeometry>
                </mxCell>
                <mxCell id="59" value="" style="endArrow=open;endSize=12;html=1;endFill=0;dashed=1;exitX=0;exitY=0.5;exitDx=0;exitDy=0;entryX=0.5;entryY=1;entryDx=0;entryDy=0;rounded=0;" parent="1" source="13" target="20" edge="1">
                    <mxGeometry width="160" relative="1" as="geometry">
                        <mxPoint x="760" y="329" as="sourcePoint"/>
                        <mxPoint x="950" y="319" as="targetPoint"/>
                        <Array as="points">
                            <mxPoint x="935" y="205"/>
                        </Array>
                    </mxGeometry>
                </mxCell>
                <mxCell id="62" value="&lt;span style=&quot;font-size: 12px&quot;&gt;«refers»&lt;/span&gt;" style="endArrow=open;endSize=12;html=1;endFill=0;dashed=1;exitX=1;exitY=0.5;exitDx=0;exitDy=0;entryX=0;entryY=0.5;entryDx=0;entryDy=0;rounded=0;" parent="1" source="7" target="10" edge="1">
                    <mxGeometry width="160" relative="1" as="geometry">
                        <mxPoint x="970" y="579" as="sourcePoint"/>
                        <mxPoint x="870" y="564" as="targetPoint"/>
                        <Array as="points">
                            <mxPoint x="850" y="305"/>
                            <mxPoint x="850" y="275"/>
                        </Array>
                    </mxGeometry>
                </mxCell>
                <mxCell id="63" value="" style="endArrow=block;endSize=12;html=1;endFill=0;exitX=1;exitY=0.75;exitDx=0;exitDy=0;rounded=0;entryX=1;entryY=0.5;entryDx=0;entryDy=0;" parent="1" source="7" target="24" edge="1">
                    <mxGeometry width="160" relative="1" as="geometry">
                        <mxPoint x="1030" y="579" as="sourcePoint"/>
                        <mxPoint x="690" y="60" as="targetPoint"/>
                        <Array as="points">
                            <mxPoint x="740" y="318"/>
                            <mxPoint x="740" y="105"/>
                        </Array>
                    </mxGeometry>
                </mxCell>
                <mxCell id="64" value="" style="endArrow=block;endSize=12;html=1;endFill=0;entryX=1;entryY=0.5;entryDx=0;entryDy=0;exitX=1;exitY=0.5;exitDx=0;exitDy=0;rounded=0;" parent="1" source="8" target="24" edge="1">
                    <mxGeometry width="160" relative="1" as="geometry">
                        <mxPoint x="820" y="321.5" as="sourcePoint"/>
                        <mxPoint x="867.5" y="179" as="targetPoint"/>
                        <Array as="points">
                            <mxPoint x="740" y="655"/>
                            <mxPoint x="740" y="105"/>
                        </Array>
                    </mxGeometry>
                </mxCell>
                <mxCell id="66" value="" style="endArrow=block;endSize=12;html=1;endFill=0;exitX=1;exitY=0.5;exitDx=0;exitDy=0;rounded=0;entryX=1;entryY=0.5;entryDx=0;entryDy=0;" parent="1" source="47" target="24" edge="1">
                    <mxGeometry width="160" relative="1" as="geometry">
                        <mxPoint x="780" y="479" as="sourcePoint"/>
                        <mxPoint x="930" y="540" as="targetPoint"/>
                        <Array as="points">
                            <mxPoint x="740" y="585"/>
                            <mxPoint x="740" y="105"/>
                        </Array>
                    </mxGeometry>
                </mxCell>
                <mxCell id="67" value="" style="endArrow=block;endSize=12;html=1;endFill=0;entryX=1;entryY=0.5;entryDx=0;entryDy=0;exitX=1;exitY=0.5;exitDx=0;exitDy=0;rounded=0;" parent="1" source="49" target="24" edge="1">
                    <mxGeometry width="160" relative="1" as="geometry">
                        <mxPoint x="790" y="489" as="sourcePoint"/>
                        <mxPoint x="797.5" y="549" as="targetPoint"/>
                        <Array as="points">
                            <mxPoint x="740" y="515"/>
                            <mxPoint x="740" y="105"/>
                        </Array>
                    </mxGeometry>
                </mxCell>
                <mxCell id="68" value="" style="endArrow=open;endSize=12;html=1;endFill=0;dashed=1;exitX=1;exitY=0.5;exitDx=0;exitDy=0;entryX=0;entryY=0.5;entryDx=0;entryDy=0;rounded=0;" parent="1" source="17" target="6" edge="1">
                    <mxGeometry width="160" relative="1" as="geometry">
                        <mxPoint x="750" y="604" as="sourcePoint"/>
                        <mxPoint x="940" y="604" as="targetPoint"/>
                        <Array as="points">
                            <mxPoint x="510" y="515"/>
                            <mxPoint x="510" y="445"/>
                        </Array>
                    </mxGeometry>
                </mxCell>
                <mxCell id="49" value="FollowBehavior" style="html=1;" parent="1" vertex="1">
                    <mxGeometry x="610" y="490" width="110" height="50" as="geometry"/>
                </mxCell>
                <mxCell id="70" value="&lt;span style=&quot;font-size: 12px&quot;&gt;«refers»&lt;/span&gt;" style="endArrow=open;endSize=12;html=1;endFill=0;dashed=1;exitX=0;exitY=0.25;exitDx=0;exitDy=0;entryX=0.5;entryY=1;entryDx=0;entryDy=0;startArrow=none;rounded=0;" edge="1" parent="1" source="6" target="16">
                    <mxGeometry width="160" relative="1" as="geometry">
                        <mxPoint x="675" y="290" as="sourcePoint"/>
                        <mxPoint x="625" y="190" as="targetPoint"/>
                        <Array as="points">
                            <mxPoint x="525" y="433"/>
                        </Array>
                    </mxGeometry>
                </mxCell>
                <mxCell id="71" value="&lt;span style=&quot;font-size: 12px&quot;&gt;«refers»&lt;/span&gt;" style="endArrow=open;endSize=12;html=1;endFill=0;dashed=1;exitX=0.5;exitY=0;exitDx=0;exitDy=0;entryX=0.5;entryY=1;entryDx=0;entryDy=0;" edge="1" parent="1" source="10" target="20">
                    <mxGeometry width="160" relative="1" as="geometry">
                        <mxPoint x="775" y="200" as="sourcePoint"/>
                        <mxPoint x="775" y="150" as="targetPoint"/>
                    </mxGeometry>
                </mxCell>
                <mxCell id="39" value="" style="endArrow=block;endSize=12;html=1;endFill=0;exitX=1;exitY=0.75;exitDx=0;exitDy=0;rounded=0;entryX=0.25;entryY=0;entryDx=0;entryDy=0;" parent="1" source="11" target="17" edge="1">
                    <mxGeometry width="160" relative="1" as="geometry">
                        <mxPoint x="635" y="469" as="sourcePoint"/>
                        <mxPoint x="540" y="414" as="targetPoint"/>
                        <Array as="points">
                            <mxPoint x="378" y="318"/>
                        </Array>
                    </mxGeometry>
                </mxCell>
                <mxCell id="74" value="DoNothingAction" style="html=1;" vertex="1" parent="1">
                    <mxGeometry x="340" y="80" width="110" height="50" as="geometry"/>
                </mxCell>
                <mxCell id="77" value="&lt;span style=&quot;font-size: 12px&quot;&gt;«refers»&lt;/span&gt;" style="endArrow=open;endSize=12;html=1;endFill=0;dashed=1;exitX=0.5;exitY=0;exitDx=0;exitDy=0;entryX=0.5;entryY=1;entryDx=0;entryDy=0;rounded=0;" edge="1" parent="1" source="17" target="74">
                    <mxGeometry x="0.2778" width="160" relative="1" as="geometry">
                        <mxPoint x="370" y="315" as="sourcePoint"/>
                        <mxPoint x="620" y="315" as="targetPoint"/>
                        <Array as="points">
                            <mxPoint x="405" y="240"/>
                            <mxPoint x="395" y="240"/>
                        </Array>
                        <mxPoint as="offset"/>
                    </mxGeometry>
                </mxCell>
            </root>
        </mxGraphModel>
    </diagram>
</mxfile>